<?xml version="1.0" encoding="UTF-8"?>
<svg width="216px" height="59px" viewBox="0 0 216 59" version="1.1" xmlns="http://www.w3.org/2000/svg" xmlns:xlink="http://www.w3.org/1999/xlink">
    <!-- Generator: Sketch 49.2 (51160) - http://www.bohemiancoding.com/sketch -->
    <title>Group</title>
    <desc>Created with Sketch.</desc>
    <defs></defs>
    <g id="Page-1" stroke="none" stroke-width="1" fill="none" fill-rule="evenodd">
        <g id="Artboard">
            <g id="Group">
                <g id="twitter-logo-silhouette" transform="translate(0.000000, 35.000000)" fill="#FFFFFF" fill-rule="nonzero">
                    <path d="M24,2.36631471 C23.1166652,2.76786846 22.1688598,3.04019762 21.173015,3.16177817 C22.1898402,2.53709876 22.9681944,1.54626961 23.337097,0.369247605 C22.3832915,0.947740883 21.3304662,1.36780127 20.2086605,1.59551335 C19.3103453,0.612368467 18.0325785,0 16.6153213,0 C13.8963364,0 11.6917446,2.26171198 11.6917446,5.04961589 C11.6917446,5.44501417 11.7352349,5.83119937 11.819235,6.20048721 C7.72801263,5.98967249 4.10020278,3.97876565 1.6721596,0.923119012 C1.24772753,1.66780992 1.00627615,2.53552972 1.00627615,3.46178682 C1.00627615,5.21424448 1.87612071,6.76051408 3.19588757,7.66516669 C2.38902351,7.6374872 1.63015953,7.40977512 0.9658055,7.0312742 L0.9658055,7.09435769 C0.9658055,9.54069348 2.66349455,11.5823777 4.91455705,12.0470551 C4.502125,12.1609112 4.06722233,12.2239947 3.61730003,12.2239947 C3.29937794,12.2239947 2.99192646,12.1916885 2.69047498,12.1301338 C3.31733875,14.1379831 5.135028,15.5980761 7.28863936,15.6381068 C5.60444053,16.9920683 3.48082922,17.7967448 1.17427643,17.7967448 C0.776864014,17.7967448 0.385412394,17.772123 0,17.7275059 C2.1791016,19.1630173 4.76612543,20 7.54660057,20 C16.6033997,20 21.553996,12.3040157 21.553996,5.62967821 L21.5374862,4.9757905 C22.5047819,4.26799217 23.3416068,3.37870812 24,2.36631471 Z" id="Shape"></path>
                </g>
                <g id="facebook" transform="translate(43.000000, 35.000000)" fill="#FFFFFF" fill-rule="nonzero">
                    <path d="M18.1701359,0 L2.82981274,0 C1.26698142,0 0,1.26692075 0,2.82979197 L0,18.1701053 C0,19.7329765 1.26693005,20.9998973 2.82981274,20.9998973 L10.3955869,20.9998973 L10.4084812,13.4956701 L8.45887202,13.4956701 C8.20550656,13.4956701 7.99986545,13.2908011 7.99888939,13.0374375 L7.98953973,10.6185138 C7.98856367,10.3637631 8.19482124,10.1567365 8.44957374,10.1567365 L10.3956383,10.1567365 L10.3956383,7.81944186 C10.3956383,5.10703347 12.0522231,3.63010656 14.4718838,3.63010656 L16.4574018,3.63010656 C16.7114351,3.63010656 16.9174358,3.83605439 16.9174358,4.09013719 L16.9174358,6.1297861 C16.9174358,6.38376616 16.7115892,6.58966261 16.4576587,6.58981673 L15.2391722,6.59038181 C13.9232849,6.59038181 13.668481,7.21567414 13.668481,8.13332094 L13.668481,10.1567879 L16.5599398,10.1567879 C16.8354465,10.1567879 17.0492043,10.39736 17.0167374,10.6709639 L16.7300317,13.0898877 C16.7025992,13.3213671 16.5063077,13.4957729 16.2732341,13.4957729 L13.6813753,13.4957729 L13.668481,21 L18.1702386,21 C19.73307,21 21,19.7330792 21,18.1702594 L21,2.82979197 C20.9999486,1.26692075 19.7330186,0 18.1701359,0 Z" id="Shape"></path>
                </g>
                <path d="M99.5954907,35.9603749 C99.5639444,35.9412656 97.6199424,35.1940225 97.6199424,35.1940225 L97.0374403,31.5351766 C96.9884328,31.2268645 96.7227913,31 96.4108198,31 L87.7995895,31 C87.4876179,31 87.2219765,31.2268645 87.1728526,31.5351766 L86.5903504,35.1940225 C86.5903504,35.1940225 84.6463485,35.9412656 84.6145693,35.9603749 C83.6894805,36.2877962 83,37.0204742 83,38.0173032 L83,52.0056512 C83,53.0346397 83.8106605,53.7633561 84.7038537,54.0842523 C84.7074623,54.0857671 84.7109545,54.0878644 84.7146796,54.0893792 L86.5903504,54.8059775 L87.1728526,58.4648234 C87.2219765,58.773019 87.4876179,59 87.7995895,59 L96.4108198,59 C96.7227913,59 96.9884328,58.7731355 97.0375567,58.4648234 L97.6200588,54.8059775 C97.6200588,54.8059775 99.5025977,54.0856506 99.5063228,54.0842523 C100.321174,53.8445706 101.210176,53.0346397 101.210176,52.0056512 L101.210176,48.1468569 L102,48.1468569 L102,45.7388536 L101.210176,45.7388536 L101.210176,43.2249336 L102,43.2249336 L102,40.8169304 L101.210176,40.8169304 L101.210176,38.0174197 C101.210176,37.0204742 100.534548,36.3629516 99.5954907,35.9603749 Z M99.1632704,50.8341587 C99.1632704,51.5194131 98.6067271,52.0764954 97.9221358,52.0764954 L86.2881571,52.0764954 C85.6035657,52.0764954 85.0470224,51.5194131 85.0470224,50.8341587 L85.0470224,39.1889123 C85.0470224,38.5036579 85.6035657,37.9465756 86.2881571,37.9465756 L97.9220194,37.9465756 C98.6066107,37.9465756 99.163154,38.5036579 99.163154,39.1889123 L99.163154,50.8341587 L99.1632704,50.8341587 Z" id="Shape" fill="#FFFFFF" fill-rule="nonzero"></path>
                <g id="musica-searcher" transform="translate(121.000000, 33.000000)" fill="#FFFFFF">
                    <path d="M23.3484622,20.5199044 L18.1488765,15.3204143 C18.121243,15.2927809 18.0888287,15.2734661 18.0599522,15.247745 C19.0830598,13.6957769 19.6801912,11.8380239 19.6801912,9.84019124 C19.6801912,4.40557769 15.2746135,0 9.84009562,0 C4.40557769,0 0,4.40557769 0,9.84009562 C0,15.2745179 4.40548207,19.6801912 9.84,19.6801912 C11.8379283,19.6801912 13.6955857,19.0830598 15.2475538,18.0599522 C15.2732749,18.0887331 15.292494,18.1211474 15.3201275,18.1487809 L20.5198088,23.3484622 C21.3009084,24.1294661 22.5672669,24.1294661 23.3484622,23.3484622 C24.1294661,22.5673625 24.1294661,21.301004 23.3484622,20.5199044 Z M9.84009562,16.2689402 C6.28943426,16.2689402 3.41115538,13.3906614 3.41115538,9.84009562 C3.41115538,6.28943426 6.28952988,3.41115538 9.84009562,3.41115538 C13.3905657,3.41115538 16.2689402,6.28952988 16.2689402,9.84009562 C16.2689402,13.3906614 13.3905657,16.2689402 9.84009562,16.2689402 Z" id="Shape"></path>
                </g>
                <path d="M165.976744,57 C164.885019,57 164,56.1045695 164,55 C164,53.8954305 164.885019,53 165.976744,53 C167.06847,53 167.953488,53.8954305 167.953488,55 C167.953488,56.1045695 167.06847,57 165.976744,57 Z M172.5,57 C171.408274,57 170.523256,56.1045695 170.523256,55 C170.523256,53.8954305 171.408274,53 172.5,53 C173.591726,53 174.476744,53.8954305 174.476744,55 C174.476744,56.1045695 173.591726,57 172.5,57 Z M179.023256,57 C177.93153,57 177.046512,56.1045695 177.046512,55 C177.046512,53.8954305 177.93153,53 179.023256,53 C180.114981,53 181,53.8954305 181,55 C181,56.1045695 180.114981,57 179.023256,57 Z" id="Combined-Shape" fill="#FFFFFF"></path>
                <g id="NdtvWhite" fill-rule="nonzero">
                    <path d="M20.1943566,5.65009887e-14 C19.4921098,5.65009887e-14 18.7901302,5.65009887e-14 18.0878834,5.65009887e-14 L17.9357789,5.65009887e-14 L17.9357789,0.958689759 L17.9357789,4.65379519 L17.9435312,4.65379519 C17.9435312,6.94043675 17.9435312,9.2270783 17.9435312,11.5137199 C17.9435312,11.5760919 17.9435312,11.6387123 17.9435312,11.7244428 C17.4088933,11.7495407 17.1931669,11.6260391 16.8381673,11.4173042 C16.3086085,11.1059413 16.0052015,10.6449849 15.7285264,10.1358208 C14.6643297,8.17868223 13.6314093,6.21483435 12.5530447,4.26440511 C11.7131286,2.74635542 10.5262325,1.55159638 8.83570753,0.815805722 C7.79075779,0.361310242 6.69207694,0.211219879 5.5551695,0.190097892 C4.85158604,0.176182229 4.15040844,0.10064006 3.44682501,0.0807605421 C3.38748021,0.0790210843 3.33161055,0 3.27226574,0 C2.18187177,0 1.09094318,0 -0.000126477835,0 C-0.00132201691,2.48493976 0.0157863953,4.62944277 0.0149844385,6.91707832 C0.0144498006,9.94323795 0.0331621265,13.0245632 0.0331621265,16.0507229 C0.0331621265,16.1093675 0.0331621265,16.1521084 0.0331621265,16.4006024 L5.91417882,16.4006024 C5.91417882,12.1762048 5.91417882,8.67094879 5.91417882,4.86948795 C6.44881671,4.81158885 6.73083819,4.93434488 7.15587532,5.22160391 C7.63892063,5.5483735 7.8784384,5.99292922 8.14415344,6.4809714 C9.20220178,8.42469127 10.2046478,10.373381 11.2752602,12.311137 C12.040327,13.6947515 13.0523965,14.9402033 14.5475113,15.7018374 C15.1150294,15.9908358 15.6905671,16.1521084 16.3219745,16.4006024 L23.5572289,16.4006024 L23.5572289,14.6927033 L23.5572289,10.8785693 L23.5572289,6.29783133 L23.5572289,4.57179218 L23.5572289,0.958441266 L23.5572289,0.177921687 L23.5572289,0 L20.1943566,5.65009887e-14 Z" id="Shape" fill="#FFFFFF"></path>
                    <path d="M92.6406667,0.000246900287 C92.1034325,1.23474834 91.5693636,1.84162924 91.0289643,2.73269238 C89.1841822,5.774257 87.3379613,8.84174618 85.4920279,11.8823232 C85.4514549,11.9492332 85.4057023,12.0277475 85.3467129,12.1171254 C85.2963562,12.0524375 85.2546322,12.0139211 85.2218283,11.9633065 C82.6697502,8.03438224 80.1191109,4.05434962 77.5684714,0.125425346 C77.5523573,0.100982217 77.5388328,0 77.5241575,0 C60.4348163,0 43.2079292,0 25.9427711,0 L25.9427711,1.82854353 L25.9427711,6.23768886 L25.9427711,10.8278121 L25.9427711,13.0726295 L25.9427711,16.2956659 L45.5447684,16.2956659 C45.6060598,16.2956659 45.667351,16.1894987 45.7283547,16.1761661 C47.1889869,15.8613683 48.4617169,15.2369574 49.422523,14.2162716 C50.4912363,13.0810241 50.9648771,11.7228256 51.0888984,10.30068 C51.1878853,9.17283948 51.1766631,8.02771594 51.183569,6.89543123 C51.1861588,6.44310989 51.1352265,6.06411794 51.0575333,5.61648774 C50.9700567,5.11503324 50.8253169,4.69159927 50.7044608,4.19779869 C53.6766579,4.19779869 56.7323031,4.19779869 59.6098296,4.19779869 C59.6098296,8.14820329 59.6098296,11.8517076 59.6098296,16.2959127 L65.3648821,16.2959127 C65.3648821,11.8517076 65.3648821,8.14820329 65.3648821,4.19779869 C65.6526348,4.19779869 65.752485,4.19779869 65.8488821,4.19779869 C68.3275832,4.19779869 70.8062844,4.11039597 73.2846978,4.10076688 C73.5350429,4.09953236 73.6533091,4.12743211 73.7698488,4.30643482 C76.3676798,8.28004803 78.9741431,12.226996 81.5725493,16.2006093 C81.6735505,16.3551688 81.7791558,16.4010923 81.9874887,16.4005985 C84.2377143,16.3934384 86.4879399,16.3872659 88.7387409,16.3954136 C88.9657778,16.3959074 89.0791524,16.3307257 89.1838944,16.1588831 C92.2363743,11.1749539 95.296048,6.13818804 98.3525567,1.15648095 C98.5758527,0.793290623 98.7841857,0.494294375 99,0.000493800573 C96.8807019,0.000246900287 94.7602525,0.000246900287 92.6406667,0.000246900287 Z M45.1882429,10.3685776 C45.1220599,11.6087577 44.2190919,12.3926661 42.7791778,12.5329055 C42.48826,12.5615459 42.1941766,12.459823 41.9021078,12.459823 C38.7791284,12.4630327 35.6564367,12.3452613 32.5337453,12.3452613 C32.4379237,12.3452613 32.2730413,12.3452613 32.2730413,12.3452613 C32.2730413,9.8762584 32.2730413,6.66655465 32.2730413,4.19755178 C32.2730413,4.19755178 32.4065586,4.19755178 32.492021,4.19755178 C35.6478043,4.19755178 38.8024363,4.09879168 41.9579319,4.1145933 C42.4476867,4.1168154 42.9526926,4.1370612 43.4243193,4.25335125 C44.4829612,4.51630005 45.1091108,5.18959715 45.1862286,6.13374383 C45.2204712,6.55174602 45.2173059,6.96061289 45.2164427,7.38009649 C45.2152916,8.38004265 45.2417649,9.37035969 45.1882429,10.3685776 Z" id="Shape" fill="#FFFFFF"></path>
                    <circle id="Oval" fill="#EC1C24" cx="25.0481928" cy="8.05120482" r="3.57831325"></circle>
                </g>
                <g id="alarm-bell" transform="translate(195.000000, 34.000000)" fill="#FFFFFF" fill-rule="nonzero">
                    <path d="M17.990299,9.8574086 C17.990299,6.31031881 15.5307385,3.34075973 12.2123978,2.55653042 L12.2123978,1.76930681 C12.2123978,0.811730769 11.4402697,0.0365764844 10.480649,0.0365764844 C9.52102836,0.0365764844 8.74890021,0.811730769 8.74890021,1.76930681 L8.74890021,2.55653042 C5.43055956,3.34075973 2.97099901,6.31128619 2.97099901,9.8574086 L2.97099901,16.2107531 L0.660649313,18.5190333 L0.660649313,19.6741869 L20.3006487,19.6741869 L20.3006487,18.5190333 L17.990299,16.2107531 C17.990299,16.2107531 17.990299,9.8574086 17.990299,9.8574086 Z M10.480649,23.1416745 C10.6429429,23.1416745 10.7921077,23.131586 10.9443129,23.0952859 C11.6922559,22.9461239 12.3182136,22.4259915 12.6054871,21.7304855 C12.7213915,21.4563001 12.7919661,21.1549357 12.7919661,20.8303539 L8.16928584,20.8303539 C8.16928584,22.1014558 9.20956971,23.1416745 10.480649,23.1416745 Z" id="Shape"></path>
                </g>
            </g>
        </g>
    </g>
</svg>